# Blender v2.79 (sub 0) OBJ File: ''
# www.blender.org
mtllib prism_top.mtl
o <STL_BINARY>.001
v 0.000000 0.043507 0.049849
v 0.000000 0.043507 0.049849
v 0.000000 0.043159 -0.050150
v 0.000000 0.043159 -0.050150
v 0.000000 0.043159 -0.050150
v 0.000000 0.043507 0.049849
v 0.000000 0.043159 -0.050150
v 0.000000 0.043507 0.049849
v 0.000000 0.043333 -0.000150
v -0.032500 0.010833 -0.000038
v -0.032500 0.011007 0.049962
v 0.032500 0.010833 -0.000038
v 0.000000 0.043333 -0.000150
v -0.032500 0.010833 -0.000037
v 0.032500 0.011007 0.049962
v -0.032500 0.010660 -0.050037
v 0.032500 0.010660 -0.050037
v 0.032500 0.010833 -0.000037
v 0.000000 0.043246 -0.025150
v -0.016250 0.026996 -0.025094
v -0.016250 0.027257 0.049906
v 0.000000 0.043420 0.024849
v 0.016250 0.026909 -0.050094
v 0.016250 0.027170 0.024906
v 0.000000 0.043420 0.024849
v -0.016250 0.027257 0.049906
v 0.016250 0.027170 0.024906
v 0.000000 0.043246 -0.025150
v -0.016250 0.026996 -0.025094
v 0.016250 0.027257 0.049906
v 0.016250 0.027257 0.049906
v -0.016250 0.026909 -0.050094
v -0.016250 0.026909 -0.050094
v 0.016250 0.026909 -0.050094
v -0.032500 0.010746 -0.025037
v -0.016250 0.027170 0.024906
v -0.016250 0.027083 -0.000094
v -0.032500 0.010920 0.024962
v 0.016250 0.026996 -0.025094
v 0.016250 0.027083 -0.000094
v 0.032500 0.010746 -0.025037
v 0.032500 0.010920 0.024962
v -0.040625 0.002751 0.012491
v -0.040625 0.002882 0.049990
v 0.040625 0.002535 -0.050009
v 0.040625 0.002665 -0.012509
v -0.040625 0.002578 -0.037509
v -0.040625 0.002708 -0.000009
v -0.032500 0.010790 -0.012537
v -0.032500 0.010876 0.012462
v 0.032500 0.010790 -0.012537
v 0.040625 0.002839 0.037490
v 0.040625 0.002708 -0.000009
v 0.032500 0.010877 0.012462
v 0.040625 0.002665 -0.012509
v -0.040625 0.002751 0.012491
v 0.040625 0.002882 0.049990
v -0.040625 0.002535 -0.050009
v -0.032500 0.010703 -0.037537
v -0.032500 0.010963 0.037462
v 0.032500 0.010703 -0.037537
v 0.032500 0.010964 0.037462
v 0.040625 0.002795 0.024990
v 0.040625 0.002752 0.012491
v 0.040625 0.002578 -0.037509
v 0.040625 0.002622 -0.025009
v -0.040625 0.002838 0.037490
v -0.040625 0.002795 0.024990
v -0.040625 0.002621 -0.025009
v -0.040625 0.002665 -0.012509
vn 0.0000 -0.0035 -1.0000
vn 0.7071 0.7071 -0.0025
vn -0.7071 0.7071 -0.0025
vn 0.0000 0.0035 1.0000
usemtl DefaultMaterial.002
s off
f 34//1 45//1 58//1 33//1
s 1
f 2//2 27//2 25//2
f 4//1 34//1 32//1
f 5//3 29//3 28//3
f 8//4 26//4 31//4
f 10//3 20//3 35//3 49//3
f 13//3 36//3 22//3
f 13//3 37//3 36//3
f 14//3 56//3 50//3
f 9//2 39//2 19//2
f 9//2 40//2 39//2
f 12//2 55//2 51//2
f 18//2 24//2 42//2 54//2
f 42//2 30//2 15//2 62//2
f 42//2 24//2 30//2
f 24//2 1//2 30//2
f 41//2 65//2 61//2
f 41//2 66//2 65//2
f 39//2 41//2 61//2 17//2
f 39//2 40//2 41//2
f 40//2 12//2 51//2 41//2
f 19//2 23//2 3//2
f 19//2 39//2 23//2
f 39//2 17//2 23//2
f 38//3 67//3 60//3
f 38//3 68//3 67//3
f 36//3 38//3 60//3 11//3
f 36//3 37//3 38//3
f 37//3 14//3 50//3 38//3
f 22//3 21//3 6//3
f 22//3 36//3 21//3
f 36//3 11//3 21//3
f 35//3 33//3 16//3 59//3
f 35//3 20//3 33//3
f 20//3 7//3 33//3
f 28//3 37//3 13//3
f 28//3 29//3 37//3
f 29//3 14//3 37//3
f 25//2 40//2 9//2
f 25//2 27//2 40//2
f 27//2 12//2 40//2
f 46//2 18//2 53//2
f 43//3 10//3 48//3
f 47//3 16//3 58//3
f 70//3 49//3 35//3
f 70//3 48//3 49//3
f 48//3 10//3 49//3
f 69//3 70//3 35//3
f 47//3 59//3 16//3
f 47//3 69//3 59//3
f 69//3 35//3 59//3
f 60//3 44//3 11//3
f 60//3 67//3 44//3
f 61//2 45//2 17//2
f 61//2 65//2 45//2
f 52//2 15//2 57//2
f 64//2 54//2 42//2
f 64//2 53//2 54//2
f 53//2 18//2 54//2
f 63//2 64//2 42//2
f 52//2 62//2 15//2
f 52//2 63//2 62//2
f 63//2 42//2 62//2
f 51//2 66//2 41//2
f 51//2 55//2 66//2
f 50//3 68//3 38//3
f 50//3 56//3 68//3
f 31//4 26//4 44//4 57//4
