# Blender v2.79 (sub 0) OBJ File: ''
# www.blender.org
mtllib prism_base_centre.mtl
o <STL_BINARY>.001
v 0.000000 0.002839 0.037490
v 0.000000 0.002665 -0.012509
v 0.000000 0.002578 -0.037509
v 0.000000 0.002752 0.012491
v 0.000000 0.002795 0.024990
v 0.000000 0.002621 -0.025009
v 0.000000 0.002708 -0.000009
v -0.005078 0.002665 -0.012509
v -0.005078 0.002839 0.037490
v 0.005078 0.002752 0.012491
v 0.005078 0.002839 0.037490
v 0.005078 0.002578 -0.037509
v 0.005078 0.002665 -0.012509
v -0.005078 0.002578 -0.037509
v -0.005078 0.002752 0.012491
v 0.000000 0.002817 0.031240
v 0.000000 0.002643 -0.018759
v 0.000000 0.002730 0.006241
v 0.005078 0.002708 -0.000009
v 0.005078 0.002621 -0.025009
v 0.005078 0.002795 0.024990
v -0.005078 0.002621 -0.025009
v -0.005078 0.002795 0.024990
v 0.000000 0.002773 0.018741
v 0.000000 0.002600 -0.031259
v 0.000000 0.002687 -0.006259
v -0.005078 0.002708 -0.000009
v -0.005078 0.002730 0.006241
v -0.005078 0.002817 0.031240
v -0.005078 0.002643 -0.018759
v -0.005078 0.002773 0.018741
v -0.005078 0.002600 -0.031259
v 0.005078 0.002687 -0.006259
v 0.005078 0.002643 -0.018759
v 0.005078 0.002600 -0.031259
v 0.005078 0.002817 0.031240
v 0.005078 0.002773 0.018741
v 0.005078 0.002730 0.006241
v -0.005078 0.002687 -0.006259
vn -0.0000 -1.0000 0.0035
usemtl DefaultMaterial.002
s 1
f 39//1 8//1 2//1 26//1
f 32//1 14//1 3//1 25//1
f 31//1 15//1 4//1 24//1
f 30//1 22//1 6//1 17//1
f 29//1 23//1 5//1 16//1
f 28//1 27//1 7//1 18//1
f 15//1 28//1 18//1 4//1
f 9//1 29//1 16//1 1//1
f 8//1 30//1 17//1 2//1
f 23//1 31//1 24//1 5//1
f 22//1 32//1 25//1 6//1
f 7//1 26//1 33//1 19//1
f 26//1 2//1 13//1 33//1
f 2//1 17//1 34//1 13//1
f 17//1 6//1 20//1 34//1
f 6//1 25//1 35//1 20//1
f 25//1 3//1 12//1 35//1
f 1//1 16//1 36//1 11//1
f 16//1 5//1 21//1 36//1
f 5//1 24//1 37//1 21//1
f 24//1 4//1 10//1 37//1
f 4//1 18//1 38//1 10//1
f 18//1 7//1 19//1 38//1
f 27//1 39//1 26//1 7//1
