# Blender v2.79 (sub 0) OBJ File: ''
# www.blender.org
mtllib prism_base_strips.mtl
o <STL_BINARY>.001
v -0.010156 0.002578 -0.037509
v 0.030469 0.002578 -0.037509
v -0.010156 0.002882 0.049990
v 0.010156 0.002535 -0.050009
v -0.030469 0.002535 -0.050009
v 0.030469 0.002882 0.049990
v 0.000000 0.002839 0.037490
v 0.000000 0.002665 -0.012509
v 0.000000 0.002578 -0.037509
v 0.000000 0.002752 0.012491
v 0.010156 0.002882 0.049990
v -0.010156 0.002535 -0.050009
v 0.030469 0.002535 -0.050009
v -0.030469 0.002882 0.049990
v 0.020312 0.002578 -0.037509
v 0.020312 0.002839 0.037490
v -0.020312 0.002839 0.037490
v -0.020312 0.002578 -0.037509
v -0.020312 0.002882 0.049990
v 0.020312 0.002535 -0.050009
v -0.020312 0.002535 -0.050009
v 0.020312 0.002882 0.049990
v 0.000000 0.002795 0.024990
v 0.000000 0.002621 -0.025009
v 0.000000 0.002708 -0.000009
v 0.000000 0.002535 -0.050009
v 0.000000 0.002882 0.049990
v 0.010156 0.002578 -0.037509
v 0.030469 0.002839 0.037490
v 0.010156 0.002839 0.037490
v -0.010156 0.002839 0.037490
v -0.030469 0.002839 0.037490
v -0.030469 0.002578 -0.037509
v -0.005078 0.002665 -0.012509
v -0.005078 0.002839 0.037490
v 0.005078 0.002752 0.012491
v 0.005078 0.002839 0.037490
v 0.005078 0.002578 -0.037509
v 0.005078 0.002665 -0.012509
v -0.005078 0.002578 -0.037509
v -0.005078 0.002752 0.012491
v 0.000000 0.002817 0.031240
v 0.000000 0.002643 -0.018759
v 0.000000 0.002730 0.006241
v 0.005078 0.002708 -0.000009
v 0.005078 0.002621 -0.025009
v 0.005078 0.002795 0.024990
v -0.005078 0.002621 -0.025009
v -0.005078 0.002795 0.024990
v 0.000000 0.002773 0.018741
v 0.000000 0.002600 -0.031259
v 0.000000 0.002687 -0.006259
v -0.005078 0.002708 -0.000009
v -0.005078 0.002730 0.006241
v -0.005078 0.002817 0.031240
v -0.005078 0.002643 -0.018759
v -0.005078 0.002773 0.018741
v -0.005078 0.002600 -0.031259
v 0.005078 0.002687 -0.006259
v 0.005078 0.002643 -0.018759
v 0.005078 0.002600 -0.031259
v 0.005078 0.002817 0.031240
v 0.005078 0.002773 0.018741
v 0.005078 0.002730 0.006241
v -0.005078 0.002687 -0.006259
vn -0.0000 -1.0000 0.0035
usemtl DefaultMaterial.002
s 1
f 65//1 34//1 8//1 52//1
f 14//1 32//1 17//1 19//1
f 19//1 17//1 31//1 3//1
f 3//1 31//1 35//1 7//1 27//1
f 27//1 7//1 37//1 30//1 11//1
f 11//1 30//1 16//1 22//1
f 22//1 16//1 29//1 6//1
f 9//1 26//1 4//1 28//1 38//1
f 18//1 21//1 12//1 1//1
f 58//1 40//1 9//1 51//1
f 57//1 41//1 10//1 50//1
f 15//1 20//1 13//1 2//1
f 33//1 5//1 21//1 18//1
f 56//1 48//1 24//1 43//1
f 55//1 49//1 23//1 42//1
f 28//1 4//1 20//1 15//1
f 1//1 12//1 26//1 9//1 40//1
f 54//1 53//1 25//1 44//1
f 41//1 54//1 44//1 10//1
f 35//1 55//1 42//1 7//1
f 34//1 56//1 43//1 8//1
f 49//1 57//1 50//1 23//1
f 48//1 58//1 51//1 24//1
f 25//1 52//1 59//1 45//1
f 52//1 8//1 39//1 59//1
f 8//1 43//1 60//1 39//1
f 43//1 24//1 46//1 60//1
f 24//1 51//1 61//1 46//1
f 51//1 9//1 38//1 61//1
f 7//1 42//1 62//1 37//1
f 42//1 23//1 47//1 62//1
f 23//1 50//1 63//1 47//1
f 50//1 10//1 36//1 63//1
f 10//1 44//1 64//1 36//1
f 44//1 25//1 45//1 64//1
f 53//1 65//1 52//1 25//1
