# Blender v2.79 (sub 0) OBJ File: ''
# www.blender.org
mtllib prism_base.mtl
o <STL_BINARY>.001
v 0.030469 0.002665 -0.012509
v -0.010156 0.002578 -0.037509
v -0.010156 0.002752 0.012491
v 0.030469 0.002752 0.012491
v 0.030469 0.002578 -0.037509
v -0.010156 0.002882 0.049990
v 0.010156 0.002535 -0.050009
v -0.030469 0.002535 -0.050009
v 0.030469 0.002708 -0.000009
v 0.030469 0.002882 0.049990
v -0.010156 0.002708 -0.000009
v 0.000000 0.002839 0.037490
v 0.000000 0.002665 -0.012509
v 0.000000 0.002578 -0.037509
v 0.000000 0.002752 0.012491
v -0.030469 0.002708 -0.000009
v 0.010156 0.002882 0.049990
v 0.010156 0.002708 -0.000009
v -0.010156 0.002535 -0.050009
v 0.030469 0.002535 -0.050009
v -0.030469 0.002882 0.049990
v 0.030469 0.002621 -0.025009
v 0.010156 0.002621 -0.025009
v 0.020312 0.002665 -0.012509
v 0.020312 0.002578 -0.037509
v 0.030469 0.002795 0.024990
v 0.010156 0.002795 0.024990
v 0.020312 0.002839 0.037490
v 0.020312 0.002752 0.012491
v -0.010156 0.002795 0.024990
v -0.030469 0.002795 0.024990
v -0.020312 0.002839 0.037490
v -0.020312 0.002752 0.012491
v -0.010156 0.002621 -0.025009
v -0.030469 0.002621 -0.025009
v -0.020312 0.002665 -0.012509
v -0.020312 0.002578 -0.037509
v -0.020312 0.002621 -0.025009
v -0.020312 0.002795 0.024990
v 0.020312 0.002795 0.024990
v 0.020312 0.002621 -0.025009
v -0.020312 0.002882 0.049990
v 0.020312 0.002535 -0.050009
v -0.020312 0.002535 -0.050009
v 0.020312 0.002708 -0.000009
v 0.020312 0.002882 0.049990
v -0.020312 0.002708 -0.000009
v 0.000000 0.002795 0.024990
v 0.000000 0.002621 -0.025009
v 0.000000 0.002708 -0.000009
v 0.000000 0.002535 -0.050009
v 0.000000 0.002882 0.049990
v 0.010156 0.002665 -0.012509
v 0.010156 0.002578 -0.037509
v 0.030469 0.002839 0.037490
v 0.010156 0.002839 0.037490
v 0.010156 0.002752 0.012491
v -0.010156 0.002839 0.037490
v -0.030469 0.002839 0.037490
v -0.030469 0.002752 0.012491
v -0.010156 0.002665 -0.012509
v -0.030469 0.002665 -0.012509
v -0.030469 0.002578 -0.037509
vn -0.0000 -1.0000 0.0035
usemtl DefaultMaterial.002
s 1
f 35//1 63//1 37//1 38//1
f 16//1 62//1 36//1 47//1
f 36//1 38//1 34//1 61//1
f 47//1 36//1 61//1 11//1
f 11//1 61//1 13//1 50//1
f 31//1 60//1 33//1 39//1
f 21//1 59//1 32//1 42//1
f 32//1 39//1 30//1 58//1
f 42//1 32//1 58//1 6//1
f 6//1 58//1 12//1 52//1
f 15//1 50//1 18//1 57//1
f 48//1 15//1 57//1 27//1
f 27//1 57//1 29//1 40//1
f 12//1 48//1 27//1 56//1
f 52//1 12//1 56//1 17//1
f 17//1 56//1 28//1 46//1
f 28//1 40//1 26//1 55//1
f 46//1 28//1 55//1 10//1
f 14//1 51//1 7//1 54//1
f 49//1 14//1 54//1 23//1
f 23//1 54//1 25//1 41//1
f 13//1 49//1 23//1 53//1
f 50//1 13//1 53//1 18//1
f 18//1 53//1 24//1 45//1
f 24//1 41//1 22//1 1//1
f 45//1 24//1 1//1 9//1
f 37//1 44//1 19//1 2//1
f 38//1 37//1 2//1 34//1
f 34//1 2//1 14//1 49//1
f 33//1 47//1 11//1 3//1
f 39//1 33//1 3//1 30//1
f 30//1 3//1 15//1 48//1
f 29//1 45//1 9//1 4//1
f 40//1 29//1 4//1 26//1
f 25//1 43//1 20//1 5//1
f 41//1 25//1 5//1 22//1
f 63//1 8//1 44//1 37//1
f 62//1 35//1 38//1 36//1
f 61//1 34//1 49//1 13//1
f 60//1 16//1 47//1 33//1
f 59//1 31//1 39//1 32//1
f 58//1 30//1 48//1 12//1
f 57//1 18//1 45//1 29//1
f 56//1 27//1 40//1 28//1
f 54//1 7//1 43//1 25//1
f 53//1 23//1 41//1 24//1
f 2//1 19//1 51//1 14//1
f 3//1 11//1 50//1 15//1
