# Blender v2.79 (sub 0) OBJ File: ''
# www.blender.org
mtllib prism2.mtl
o <STL_BINARY>.001
v 0.065000 -0.021840 -0.049924
v 0.000000 0.043507 0.049849
v 0.065000 -0.021493 0.050075
v 0.000000 0.043507 0.049849
v 0.065000 -0.021840 -0.049924
v 0.000000 0.043159 -0.050150
v 0.000000 0.043159 -0.050150
v 0.065000 -0.021840 -0.049924
v -0.065000 -0.021840 -0.049924
v 0.000000 0.043159 -0.050150
v -0.065000 -0.021493 0.050075
v 0.000000 0.043507 0.049849
v -0.065000 -0.021493 0.050075
v 0.000000 0.043159 -0.050150
v -0.065000 -0.021840 -0.049924
v 0.000000 0.043507 0.049849
v -0.065000 -0.021493 0.050075
v 0.065000 -0.021493 0.050075
vn 0.7071 0.7071 -0.0025
vn 0.0000 -0.0035 -1.0000
vn -0.7071 0.7071 -0.0025
vn 0.0000 0.0035 1.0000
usemtl DefaultMaterial.002
s 1
f 1//1 2//1 3//1
f 4//1 5//1 6//1
f 7//2 8//2 9//2
f 10//3 11//3 12//3
f 13//3 14//3 15//3
f 16//4 17//4 18//4
