# Blender v2.79 (sub 0) OBJ File: ''
# www.blender.org
mtllib prism_base_border.mtl
o <STL_BINARY>.001
v -0.010156 0.002578 -0.037509
v 0.030469 0.002578 -0.037509
v -0.010156 0.002882 0.049990
v 0.010156 0.002535 -0.050009
v -0.030469 0.002535 -0.050009
v 0.030469 0.002882 0.049990
v 0.000000 0.002839 0.037490
v 0.000000 0.002578 -0.037509
v 0.010156 0.002882 0.049990
v -0.010156 0.002535 -0.050009
v 0.030469 0.002535 -0.050009
v -0.030469 0.002882 0.049990
v 0.020312 0.002578 -0.037509
v 0.020312 0.002839 0.037490
v -0.020312 0.002839 0.037490
v -0.020312 0.002578 -0.037509
v -0.020312 0.002882 0.049990
v 0.020312 0.002535 -0.050009
v -0.020312 0.002535 -0.050009
v 0.020312 0.002882 0.049990
v 0.000000 0.002535 -0.050009
v 0.000000 0.002882 0.049990
v 0.010156 0.002578 -0.037509
v 0.030469 0.002839 0.037490
v 0.010156 0.002839 0.037490
v -0.010156 0.002839 0.037490
v -0.030469 0.002839 0.037490
v -0.030469 0.002578 -0.037509
vn 0.0000 -1.0000 0.0035
usemtl DefaultMaterial.002
s 1
f 12//1 27//1 15//1 17//1
f 17//1 15//1 26//1 3//1
f 3//1 26//1 7//1 22//1
f 22//1 7//1 25//1 9//1
f 9//1 25//1 14//1 20//1
f 20//1 14//1 24//1 6//1
f 8//1 21//1 4//1 23//1
f 16//1 19//1 10//1 1//1
f 13//1 18//1 11//1 2//1
f 28//1 5//1 19//1 16//1
f 23//1 4//1 18//1 13//1
f 1//1 10//1 21//1 8//1
